<mxfile host="app.diagrams.net" modified="2021-09-09T17:10:58.819Z" agent="5.0 (Windows NT 10.0; Win64; x64) AppleWebKit/537.36 (KHTML, like Gecko) Chrome/90.0.4430.93 Safari/537.36" etag="6NX_a2bsQqxzvW9io0-4" version="15.1.0" type="github">
  <diagram id="GSLeb3nwmD998rAMkIyf" name="Page-1">
    <mxGraphModel dx="781" dy="1590" grid="1" gridSize="10" guides="1" tooltips="1" connect="1" arrows="1" fold="1" page="1" pageScale="1" pageWidth="827" pageHeight="1169" math="0" shadow="0">
      <root>
        <mxCell id="0" />
        <mxCell id="1" parent="0" />
        <mxCell id="sniVqNmkd8xiCt3k6X7--1" value="Interceptor.Chain&lt;Interface&gt;" style="swimlane;fontStyle=1;align=center;verticalAlign=top;childLayout=stackLayout;horizontal=1;startSize=26;horizontalStack=0;resizeParent=1;resizeParentMax=0;resizeLast=0;collapsible=1;marginBottom=0;" vertex="1" parent="1">
          <mxGeometry x="160" y="90" width="270" height="78" as="geometry" />
        </mxCell>
        <mxCell id="sniVqNmkd8xiCt3k6X7--4" value="+ proceed(request: Request?): Response" style="text;strokeColor=none;fillColor=none;align=left;verticalAlign=top;spacingLeft=4;spacingRight=4;overflow=hidden;rotatable=0;points=[[0,0.5],[1,0.5]];portConstraint=eastwest;" vertex="1" parent="sniVqNmkd8xiCt3k6X7--1">
          <mxGeometry y="26" width="270" height="26" as="geometry" />
        </mxCell>
        <mxCell id="sniVqNmkd8xiCt3k6X7--2" value="+ request(): Request" style="text;strokeColor=none;fillColor=none;align=left;verticalAlign=top;spacingLeft=4;spacingRight=4;overflow=hidden;rotatable=0;points=[[0,0.5],[1,0.5]];portConstraint=eastwest;" vertex="1" parent="sniVqNmkd8xiCt3k6X7--1">
          <mxGeometry y="52" width="270" height="26" as="geometry" />
        </mxCell>
        <mxCell id="sniVqNmkd8xiCt3k6X7--13" value="Interceptor&lt;Interface&gt;" style="swimlane;fontStyle=1;align=center;verticalAlign=top;childLayout=stackLayout;horizontal=1;startSize=26;horizontalStack=0;resizeParent=1;resizeParentMax=0;resizeLast=0;collapsible=1;marginBottom=0;" vertex="1" parent="1">
          <mxGeometry x="160" y="-60" width="270" height="52" as="geometry" />
        </mxCell>
        <mxCell id="sniVqNmkd8xiCt3k6X7--14" value="+ intercept(chain: Chain): Response" style="text;strokeColor=none;fillColor=none;align=left;verticalAlign=top;spacingLeft=4;spacingRight=4;overflow=hidden;rotatable=0;points=[[0,0.5],[1,0.5]];portConstraint=eastwest;" vertex="1" parent="sniVqNmkd8xiCt3k6X7--13">
          <mxGeometry y="26" width="270" height="26" as="geometry" />
        </mxCell>
        <mxCell id="sniVqNmkd8xiCt3k6X7--17" value="" style="endArrow=open;startArrow=circlePlus;endFill=0;startFill=0;endSize=8;html=1;exitX=0.5;exitY=0;exitDx=0;exitDy=0;" edge="1" parent="1" source="sniVqNmkd8xiCt3k6X7--1" target="sniVqNmkd8xiCt3k6X7--14">
          <mxGeometry width="160" relative="1" as="geometry">
            <mxPoint x="320" y="230" as="sourcePoint" />
            <mxPoint x="430" y="70" as="targetPoint" />
          </mxGeometry>
        </mxCell>
        <mxCell id="sniVqNmkd8xiCt3k6X7--18" value="RealInterceptorChain" style="swimlane;fontStyle=1;align=center;verticalAlign=top;childLayout=stackLayout;horizontal=1;startSize=26;horizontalStack=0;resizeParent=1;resizeParentMax=0;resizeLast=0;collapsible=1;marginBottom=0;" vertex="1" parent="1">
          <mxGeometry x="160" y="250" width="270" height="156" as="geometry" />
        </mxCell>
        <mxCell id="sniVqNmkd8xiCt3k6X7--19" value="+ call: RealCall" style="text;strokeColor=none;fillColor=none;align=left;verticalAlign=top;spacingLeft=4;spacingRight=4;overflow=hidden;rotatable=0;points=[[0,0.5],[1,0.5]];portConstraint=eastwest;" vertex="1" parent="sniVqNmkd8xiCt3k6X7--18">
          <mxGeometry y="26" width="270" height="26" as="geometry" />
        </mxCell>
        <mxCell id="sniVqNmkd8xiCt3k6X7--20" value="+ interceptors: List&lt;Interceptor&gt;" style="text;strokeColor=none;fillColor=none;align=left;verticalAlign=top;spacingLeft=4;spacingRight=4;overflow=hidden;rotatable=0;points=[[0,0.5],[1,0.5]];portConstraint=eastwest;" vertex="1" parent="sniVqNmkd8xiCt3k6X7--18">
          <mxGeometry y="52" width="270" height="26" as="geometry" />
        </mxCell>
        <mxCell id="sniVqNmkd8xiCt3k6X7--23" value="+ index: Int" style="text;strokeColor=none;fillColor=none;align=left;verticalAlign=top;spacingLeft=4;spacingRight=4;overflow=hidden;rotatable=0;points=[[0,0.5],[1,0.5]];portConstraint=eastwest;" vertex="1" parent="sniVqNmkd8xiCt3k6X7--18">
          <mxGeometry y="78" width="270" height="26" as="geometry" />
        </mxCell>
        <mxCell id="sniVqNmkd8xiCt3k6X7--24" value="+ exchange: Exchange?" style="text;strokeColor=none;fillColor=none;align=left;verticalAlign=top;spacingLeft=4;spacingRight=4;overflow=hidden;rotatable=0;points=[[0,0.5],[1,0.5]];portConstraint=eastwest;" vertex="1" parent="sniVqNmkd8xiCt3k6X7--18">
          <mxGeometry y="104" width="270" height="26" as="geometry" />
        </mxCell>
        <mxCell id="sniVqNmkd8xiCt3k6X7--25" value="+ request: Request" style="text;strokeColor=none;fillColor=none;align=left;verticalAlign=top;spacingLeft=4;spacingRight=4;overflow=hidden;rotatable=0;points=[[0,0.5],[1,0.5]];portConstraint=eastwest;" vertex="1" parent="sniVqNmkd8xiCt3k6X7--18">
          <mxGeometry y="130" width="270" height="26" as="geometry" />
        </mxCell>
        <mxCell id="sniVqNmkd8xiCt3k6X7--21" value="" style="endArrow=block;dashed=1;endFill=0;endSize=12;html=1;exitX=0.5;exitY=0;exitDx=0;exitDy=0;entryX=0.5;entryY=1;entryDx=0;entryDy=0;" edge="1" parent="1" source="sniVqNmkd8xiCt3k6X7--18" target="sniVqNmkd8xiCt3k6X7--1">
          <mxGeometry width="160" relative="1" as="geometry">
            <mxPoint x="450" y="120" as="sourcePoint" />
            <mxPoint x="295" y="170" as="targetPoint" />
          </mxGeometry>
        </mxCell>
        <mxCell id="sniVqNmkd8xiCt3k6X7--33" value="" style="group" vertex="1" connectable="0" parent="1">
          <mxGeometry x="600" y="-88" width="270" height="80" as="geometry" />
        </mxCell>
        <mxCell id="sniVqNmkd8xiCt3k6X7--26" value="" style="rounded=1;whiteSpace=wrap;html=1;" vertex="1" parent="sniVqNmkd8xiCt3k6X7--33">
          <mxGeometry width="270" height="80" as="geometry" />
        </mxCell>
        <mxCell id="sniVqNmkd8xiCt3k6X7--27" value="RealCall" style="text;html=1;align=center;verticalAlign=middle;resizable=0;points=[];autosize=1;strokeColor=none;fillColor=none;" vertex="1" parent="sniVqNmkd8xiCt3k6X7--33">
          <mxGeometry x="10" y="12" width="60" height="20" as="geometry" />
        </mxCell>
        <mxCell id="sniVqNmkd8xiCt3k6X7--28" value="interceptor0" style="text;html=1;align=center;verticalAlign=middle;resizable=0;points=[];autosize=1;strokeColor=none;fillColor=none;" vertex="1" parent="sniVqNmkd8xiCt3k6X7--33">
          <mxGeometry y="50" width="80" height="20" as="geometry" />
        </mxCell>
        <mxCell id="sniVqNmkd8xiCt3k6X7--29" value="interceptor1" style="text;html=1;align=center;verticalAlign=middle;resizable=0;points=[];autosize=1;strokeColor=none;fillColor=none;" vertex="1" parent="sniVqNmkd8xiCt3k6X7--33">
          <mxGeometry x="80" y="50" width="80" height="20" as="geometry" />
        </mxCell>
        <mxCell id="sniVqNmkd8xiCt3k6X7--30" value="interceptorN" style="text;html=1;align=center;verticalAlign=middle;resizable=0;points=[];autosize=1;strokeColor=none;fillColor=none;" vertex="1" parent="sniVqNmkd8xiCt3k6X7--33">
          <mxGeometry x="190" y="50" width="80" height="20" as="geometry" />
        </mxCell>
        <mxCell id="sniVqNmkd8xiCt3k6X7--32" value="..." style="text;html=1;align=center;verticalAlign=middle;resizable=0;points=[];autosize=1;strokeColor=none;fillColor=none;" vertex="1" parent="sniVqNmkd8xiCt3k6X7--33">
          <mxGeometry x="160" y="50" width="30" height="20" as="geometry" />
        </mxCell>
        <mxCell id="sniVqNmkd8xiCt3k6X7--38" value="" style="group" vertex="1" connectable="0" parent="1">
          <mxGeometry x="650" y="60" width="170" height="50" as="geometry" />
        </mxCell>
        <mxCell id="sniVqNmkd8xiCt3k6X7--35" value="" style="rounded=1;whiteSpace=wrap;html=1;" vertex="1" parent="sniVqNmkd8xiCt3k6X7--38">
          <mxGeometry width="170" height="50" as="geometry" />
        </mxCell>
        <mxCell id="sniVqNmkd8xiCt3k6X7--36" value="RealInterceptorChain0" style="text;html=1;align=center;verticalAlign=middle;resizable=0;points=[];autosize=1;strokeColor=none;fillColor=none;" vertex="1" parent="sniVqNmkd8xiCt3k6X7--38">
          <mxGeometry x="-5" y="6" width="140" height="20" as="geometry" />
        </mxCell>
        <mxCell id="sniVqNmkd8xiCt3k6X7--37" value="index = 0" style="text;html=1;align=center;verticalAlign=middle;resizable=0;points=[];autosize=1;strokeColor=none;fillColor=none;" vertex="1" parent="sniVqNmkd8xiCt3k6X7--38">
          <mxGeometry x="65" y="30" width="60" height="20" as="geometry" />
        </mxCell>
        <mxCell id="sniVqNmkd8xiCt3k6X7--40" value="" style="group" vertex="1" connectable="0" parent="1">
          <mxGeometry x="930" y="60" width="170" height="50" as="geometry" />
        </mxCell>
        <mxCell id="sniVqNmkd8xiCt3k6X7--41" value="" style="rounded=1;whiteSpace=wrap;html=1;" vertex="1" parent="sniVqNmkd8xiCt3k6X7--40">
          <mxGeometry width="170" height="50" as="geometry" />
        </mxCell>
        <mxCell id="sniVqNmkd8xiCt3k6X7--42" value="RealInterceptorChain1" style="text;html=1;align=center;verticalAlign=middle;resizable=0;points=[];autosize=1;strokeColor=none;fillColor=none;" vertex="1" parent="sniVqNmkd8xiCt3k6X7--40">
          <mxGeometry x="-5" y="6" width="140" height="20" as="geometry" />
        </mxCell>
        <mxCell id="sniVqNmkd8xiCt3k6X7--43" value="index = 1" style="text;html=1;align=center;verticalAlign=middle;resizable=0;points=[];autosize=1;strokeColor=none;fillColor=none;" vertex="1" parent="sniVqNmkd8xiCt3k6X7--40">
          <mxGeometry x="65" y="30" width="60" height="20" as="geometry" />
        </mxCell>
        <mxCell id="sniVqNmkd8xiCt3k6X7--44" value="" style="group" vertex="1" connectable="0" parent="1">
          <mxGeometry x="1210" y="60" width="170" height="50" as="geometry" />
        </mxCell>
        <mxCell id="sniVqNmkd8xiCt3k6X7--45" value="" style="rounded=1;whiteSpace=wrap;html=1;" vertex="1" parent="sniVqNmkd8xiCt3k6X7--44">
          <mxGeometry width="170" height="50" as="geometry" />
        </mxCell>
        <mxCell id="sniVqNmkd8xiCt3k6X7--46" value="RealInterceptorChainN" style="text;html=1;align=center;verticalAlign=middle;resizable=0;points=[];autosize=1;strokeColor=none;fillColor=none;" vertex="1" parent="sniVqNmkd8xiCt3k6X7--44">
          <mxGeometry x="-5" y="6" width="140" height="20" as="geometry" />
        </mxCell>
        <mxCell id="sniVqNmkd8xiCt3k6X7--47" value="index = N" style="text;html=1;align=center;verticalAlign=middle;resizable=0;points=[];autosize=1;strokeColor=none;fillColor=none;" vertex="1" parent="sniVqNmkd8xiCt3k6X7--44">
          <mxGeometry x="60" y="30" width="70" height="20" as="geometry" />
        </mxCell>
        <mxCell id="sniVqNmkd8xiCt3k6X7--48" value="" style="edgeStyle=orthogonalEdgeStyle;rounded=0;orthogonalLoop=1;jettySize=auto;html=1;entryX=0.5;entryY=0;entryDx=0;entryDy=0;" edge="1" parent="1" source="sniVqNmkd8xiCt3k6X7--26" target="sniVqNmkd8xiCt3k6X7--35">
          <mxGeometry relative="1" as="geometry" />
        </mxCell>
        <mxCell id="sniVqNmkd8xiCt3k6X7--50" value="request" style="text;html=1;align=center;verticalAlign=middle;resizable=0;points=[];autosize=1;strokeColor=none;fillColor=none;" vertex="1" parent="1">
          <mxGeometry x="730" y="10" width="60" height="20" as="geometry" />
        </mxCell>
        <mxCell id="sniVqNmkd8xiCt3k6X7--51" value="" style="edgeStyle=orthogonalEdgeStyle;rounded=0;orthogonalLoop=1;jettySize=auto;html=1;entryX=0;entryY=0.5;entryDx=0;entryDy=0;dashed=1;" edge="1" parent="1" source="sniVqNmkd8xiCt3k6X7--35" target="sniVqNmkd8xiCt3k6X7--41">
          <mxGeometry relative="1" as="geometry" />
        </mxCell>
        <mxCell id="sniVqNmkd8xiCt3k6X7--53" value="" style="edgeStyle=orthogonalEdgeStyle;rounded=0;orthogonalLoop=1;jettySize=auto;html=1;startArrow=classic;startFill=1;endArrow=none;endFill=0;dashed=1;" edge="1" parent="1" source="sniVqNmkd8xiCt3k6X7--45" target="sniVqNmkd8xiCt3k6X7--41">
          <mxGeometry relative="1" as="geometry" />
        </mxCell>
      </root>
    </mxGraphModel>
  </diagram>
</mxfile>
